<svg xmlns="http://www.w3.org/2000/svg" viewBox="0 0 18.06 17.22"><defs><style>.cls-1{fill:#e01428;}</style></defs><g id="Layer_2" data-name="Layer 2"><g id="레이어_1" data-name="레이어 1"><path class="cls-1" d="M9.43.25l2.45,5a.47.47,0,0,0,.34.25l5.46.79a.45.45,0,0,1,.25.77l-4,3.85a.44.44,0,0,0-.12.4l.93,5.43a.46.46,0,0,1-.66.48L9.24,14.6a.45.45,0,0,0-.42,0L3.94,17.17a.46.46,0,0,1-.66-.48l.94-5.43a.48.48,0,0,0-.13-.4L.14,7a.45.45,0,0,1,.25-.77l5.46-.79a.51.51,0,0,0,.34-.25L8.63.25A.45.45,0,0,1,9.43.25Z"/></g></g></svg>